<?xml version="1.0" encoding="utf-8"?>
<!-- Generator: Adobe Illustrator 19.0.0, SVG Export Plug-In . SVG Version: 6.00 Build 0)  -->
<svg version="1.1" id="Layer_1" xmlns="http://www.w3.org/2000/svg" xmlns:xlink="http://www.w3.org/1999/xlink" x="0px" y="0px"
	 viewBox="-255 334 100 125" style="enable-background:new -255 334 100 125;" xml:space="preserve">
<g>
	<g>
		<path d="M-216.8,451.9L-216.8,451.9c0-1.1-0.4-2.1-1-2.9l-19.1-21.8c-1.4-1.5-1.4-4.1,0-5.6l19.1-21.8c0.6-0.7,1-1.8,1-2.8v-0.1
			c0-3.5-3.6-5.3-5.8-2.8l-24,27.5c-1.4,1.5-1.4,4.1,0,5.6l24,27.5C-220.4,457.1-216.8,455.4-216.8,451.9z"/>
		<path d="M-208.6,457.4L-208.6,457.4c1.7-0.2,3-1.4,3.1-2.7l6-63.4c0.2-1.7-1.6-2.9-3.7-2.6h0c-1.7,0.2-3,1.4-3.1,2.7l-6,63.4
			C-212.4,456.4-210.6,457.7-208.6,457.4z"/>
		<path d="M-193.2,397.7L-193.2,397.7c0,1.1,0.4,2.1,1,2.9l19.1,21.8c1.4,1.5,1.4,4.1,0,5.6l-19.1,21.8c-0.6,0.7-1,1.8-1,2.8v0.1
			c0,3.5,3.6,5.3,5.8,2.8l24-27.5c1.4-1.5,1.4-4.1,0-5.6l-24-27.5C-189.6,392.4-193.2,394.2-193.2,397.7z"/>
	</g>
</g>
</svg>
