<?xml version="1.0" encoding="utf-8"?>
<!-- Generator: Adobe Illustrator 19.0.0, SVG Export Plug-In . SVG Version: 6.00 Build 0)  -->
<svg version="1.1" id="Layer_1" xmlns="http://www.w3.org/2000/svg" xmlns:xlink="http://www.w3.org/1999/xlink" x="0px" y="0px"
	 viewBox="-260 340.5 90 112.5" style="enable-background:new -260 340.5 90 112.5;" xml:space="preserve">
<g>
	<path d="M-186.1,406.5v-13.3c0-5.7-3.2-10.2-7.3-10.2h-37.5c-3.7,0-6.7,3.6-7.2,8.6c-7,1.5-12.1,8.2-12.1,16.1
		c0,9,6.7,16.4,15,16.4c0.3,0,0.6,0,0.9,0c0,0.1,0.1,0.1,0.1,0.2c4.7,8.2,13.1,13.3,22.2,13.3c14.4,0,26-12.5,26-27.9
		C-185.9,409.1-186,408.2-186.1,406.5z M-238.4,407.3c0.1,1,0.1,2.1,0.3,3.2c0,1.1,0.2,2,0.4,3.1c0,0.1,0,0.3,0.1,0.5
		c0,0.1,0,0.2,0.1,0.4c-2.2-1.1-4.3-4-4.3-6.6c0-2.6,1.2-4.7,3.1-5.5L-238.4,407.3z M-247.7,407.7c0-6.4,3.9-11.9,9.4-13.4
		c-0.1,1.3-0.2,3.1-0.2,5.4c-3.5,0.7-5.8,4-5.8,8.2c0,4.2,3.6,8.7,7.3,9.4c0.4,1.5,0.8,3,1.4,4.3
		C-242.3,421.3-247.7,415.2-247.7,407.7z M-212,435.1c-8.5,0-16.4-5-20.6-13l-0.4-0.8l0,0c-0.8-1.6-1.4-3.4-1.8-5.4v-0.1
		c0-0.2-0.1-0.6-0.2-1.1c-0.1-0.6-0.3-1.4-0.3-1.6V413c-0.2-1-0.3-2.1-0.4-3.2l-0.2-2.2c-0.4-6.1-0.1-11.8,0.1-14l0,0v-1
		c0.1-4,2.3-7.2,4.8-7.2h37.6c2.6,0,4.8,3.5,4.8,7.7l0.2,13.4v0.1c0.1,1,0,2.1,0,3.1C-188.4,423.7-199,435.1-212,435.1z"/>
	<path d="M-229.2,361.2c2,0.7,3.3,1.5,3.8,2.6c0.8,1.6,0.1,3.9-0.8,6.3c-1.3,3.9-3,8.7,3,11.6c0.2,0.1,0.4,0.1,0.5,0.1
		c0.5,0,0.9-0.3,1.1-0.7c0.3-0.6,0-1.4-0.6-1.7c-3.8-1.8-3.2-4.3-1.7-8.5c0.9-2.8,1.9-5.7,0.6-8.2c-0.9-1.7-2.6-3-5.3-3.9
		c-0.7-0.2-1.4,0.1-1.6,0.8C-230.2,360.3-229.9,361-229.2,361.2z"/>
	<path d="M-217.1,358.4c2,0.7,3.3,1.5,3.8,2.6c0.8,1.6,0.1,3.9-0.8,6.3c-1.3,3.9-3,8.7,3,11.6c0.2,0.1,0.3,0.1,0.5,0.1
		c0.5,0,0.9-0.3,1.1-0.7c0.3-0.6,0-1.4-0.6-1.7c-3.8-1.8-3.2-4.3-1.7-8.5c0.9-2.8,1.9-5.7,0.6-8.2c-0.9-1.7-2.6-3-5.3-3.9
		c-0.7-0.2-1.4,0.1-1.6,0.8C-218.1,357.5-217.7,358.2-217.1,358.4z"/>
	<path d="M-204.4,361.2c2,0.7,3.3,1.5,3.8,2.6c0.8,1.6,0.1,3.9-0.8,6.3c-1.3,3.9-3,8.7,3,11.6c0.2,0.1,0.3,0.1,0.5,0.1
		c0.5,0,0.9-0.3,1.1-0.7c0.3-0.6,0-1.4-0.6-1.7c-3.8-1.8-3.2-4.3-1.7-8.5c0.9-2.8,1.9-5.7,0.6-8.2c-0.9-1.7-2.6-3-5.3-3.9
		c-0.7-0.2-1.4,0.1-1.6,0.8C-205.4,360.3-205,361-204.4,361.2z"/>
</g>
<path d="M-222.4,419.1"/>
</svg>
