<svg xmlns="http://www.w3.org/2000/svg" xmlns:xlink="http://www.w3.org/1999/xlink" version="1.1" baseProfile="tiny" x="0px" y="0px" viewBox="0 0 100 100" xml:space="preserve"><g><path d="M79.976,45.43c-2.781-10.607-5.986-17.585-13.369-19.59c-1.127-0.305-2.188-0.454-3.244-0.454   c-2.228,0-4.02,0.671-5.758,1.321c-1.598,0.598-3.383,1.253-5.852,1.475l-1.848,0.054c0,0.01-5.581-0.808-7.524-1.536   c-1.728-0.648-3.517-1.318-5.735-1.318c-1.059,0-2.122,0.149-3.248,0.456c-7.389,2.006-10.593,8.983-13.368,19.591   c-3.218,12.287-2.328,20.523,2.44,22.6c0.776,0.34,1.594,0.512,2.428,0.512c4.24,0,8.139-4.457,10.987-7.715l0.775-0.898   c2.322-2.716,7.186-4.273,13.342-4.273c6.695,0,10.81,1.318,13.34,4.277l0.776,0.9c2.845,3.254,6.741,7.707,10.984,7.707   c0.839,0,1.654-0.172,2.425-0.51C82.296,65.953,83.187,57.717,79.976,45.43z M39.87,46.26h-3.183v3.083   c0,1.131-0.995,2.084-2.172,2.084c-1.18,0-2.175-0.953-2.175-2.084V46.26h-2.99c-1.128,0-2.083-0.996-2.083-2.174   c0-1.18,0.954-2.175,2.083-2.175h2.99v-3.086c0-1.129,0.996-2.084,2.175-2.084c1.177,0,2.172,0.955,2.172,2.084v3.086h3.183   c1.127,0,2.083,0.995,2.083,2.175C41.954,45.265,40.998,46.26,39.87,46.26z M62.475,50.043c-1.763,0-3.196-1.432-3.196-3.194   c0-1.762,1.436-3.194,3.196-3.194c1.76,0,3.191,1.433,3.191,3.194C65.666,48.611,64.234,50.043,62.475,50.043z M68.434,44.084   c-1.762,0-3.193-1.434-3.193-3.195c0-1.76,1.433-3.193,3.193-3.193s3.194,1.433,3.195,3.193   C71.629,42.651,70.194,44.084,68.434,44.084z"></path></g></svg>