<?xml version="1.0" encoding="utf-8"?>
<!-- Generator: Adobe Illustrator 19.0.0, SVG Export Plug-In . SVG Version: 6.00 Build 0)  -->
<svg version="1.1" id="Layer_1" xmlns="http://www.w3.org/2000/svg" xmlns:xlink="http://www.w3.org/1999/xlink" x="0px" y="0px"
	 viewBox="-255 338 100 117" style="enable-background:new -255 338 100 117;" xml:space="preserve">
<style type="text/css">
	.st0{fill:#FFFFFF;}
</style>
<path class="st0" d="M-166,388.8h-21c-4.1,0-7.3-3.3-7.3-7.3v-19.5c0,0,0.3-10-10.3-9.9c-8.8,0.1-10.7,6.9-11.1,9.2
	c-0.1,0.4-0.1,0.8-0.1,1.2v19c0,4.1-3.3,7.3-7.3,7.3h-21.3c0,0-10.5,0-10.6,9.9c-0.1,9.9,10.6,10.2,10.6,10.2h21.3
	c4.1,0,7.3,3.3,7.3,7.3v19.5c0,0,0,9.9,10.6,9.9c10.5,0,10.9-9.9,10.9-9.9v-19.5c0-4.1,3.3-7.3,7.3-7.3h21.3c0,0,10.7,0.2,10.6-9.6
	c-0.1-8.5-7.8-10.1-10-10.4C-165.3,388.8-165.6,388.8-166,388.8z"/>
</svg>
